<svg width="350" height="350" viewBox="0 0 350 350" fill="none" xmlns="http://www.w3.org/2000/svg">
<circle cx="175" cy="175" r="165" stroke="#797979" stroke-width="20"/>
<path d="M199.983 12.3668C200.861 6.65739 206.209 2.70852 211.856 3.92502C238.144 9.58827 262.822 21.2456 283.94 38.0439C307.792 57.0166 326.276 81.8895 337.561 110.2C348.846 138.512 352.542 169.279 348.283 199.457C344.511 226.177 334.62 251.615 319.436 273.809C316.175 278.576 309.576 279.39 305.012 275.849C300.448 272.309 299.651 265.757 302.873 260.963C315.845 241.668 324.308 219.646 327.57 196.534C331.32 169.963 328.066 142.873 318.13 117.946C308.193 93.0191 291.919 71.1193 270.919 54.4145C252.652 39.8844 231.36 29.7229 208.672 24.6421C203.035 23.3798 199.106 18.0761 199.983 12.3668Z" fill="#FE8235"/>
<path d="M95.6562 186.375C98.1146 187.583 100.74 188.469 103.531 189.031C106.344 189.573 109.083 189.844 111.75 189.844C114.125 189.844 116.177 189.656 117.906 189.281C119.635 188.885 121.062 188.354 122.188 187.688C123.312 187.021 124.146 186.229 124.688 185.312C125.229 184.396 125.5 183.406 125.5 182.344C125.5 180.906 125.01 179.625 124.031 178.5C123.052 177.354 121.562 176.5 119.562 175.938C117.583 175.354 115.073 175.125 112.031 175.25C109.01 175.375 105.448 175.969 101.344 177.031L101.375 169.719L119.625 157.844H93.7812V149.156H132.875V157.656L116.812 167.844C119.75 167.844 122.375 168.219 124.688 168.969C127 169.719 128.948 170.75 130.531 172.062C132.115 173.375 133.323 174.927 134.156 176.719C134.99 178.51 135.406 180.438 135.406 182.5C135.406 184.938 134.865 187.156 133.781 189.156C132.719 191.135 131.167 192.833 129.125 194.25C127.083 195.646 124.583 196.729 121.625 197.5C118.688 198.271 115.354 198.656 111.625 198.656C107.667 198.656 104.01 198.24 100.656 197.406C97.3021 196.552 94.1146 195.375 91.0938 193.875L95.6562 186.375ZM153.406 186.719C154.302 187.24 155.302 187.698 156.406 188.094C157.51 188.49 158.646 188.823 159.812 189.094C161 189.344 162.188 189.542 163.375 189.688C164.583 189.812 165.729 189.875 166.812 189.875C169.229 189.875 171.406 189.562 173.344 188.938C175.302 188.312 176.99 187.427 178.406 186.281C179.823 185.135 180.948 183.771 181.781 182.188C182.635 180.583 183.167 178.812 183.375 176.875C182.292 177.729 181.094 178.469 179.781 179.094C178.469 179.719 177.073 180.24 175.594 180.656C174.135 181.052 172.625 181.354 171.062 181.562C169.521 181.75 167.969 181.844 166.406 181.844C163.365 181.844 160.594 181.479 158.094 180.75C155.615 180.021 153.49 178.969 151.719 177.594C149.948 176.219 148.573 174.552 147.594 172.594C146.635 170.615 146.156 168.375 146.156 165.875C146.156 163.417 146.635 161.135 147.594 159.031C148.573 156.927 150.01 155.104 151.906 153.562C153.802 152 156.156 150.781 158.969 149.906C161.781 149.01 165.042 148.562 168.75 148.562C172.354 148.562 175.646 149.021 178.625 149.938C181.604 150.854 184.156 152.281 186.281 154.219C188.406 156.156 190.052 158.625 191.219 161.625C192.406 164.604 193 168.167 193 172.312C193 176.75 192.333 180.625 191 183.938C189.688 187.229 187.875 189.969 185.562 192.156C183.271 194.344 180.562 195.979 177.438 197.062C174.312 198.146 170.938 198.688 167.312 198.688C165.792 198.688 164.208 198.594 162.562 198.406C160.938 198.219 159.323 197.938 157.719 197.562C156.115 197.188 154.562 196.719 153.062 196.156C151.583 195.594 150.229 194.948 149 194.219L153.406 186.719ZM156.062 165.719C156.062 166.74 156.281 167.698 156.719 168.594C157.156 169.49 157.833 170.271 158.75 170.938C159.688 171.583 160.885 172.104 162.344 172.5C163.802 172.875 165.562 173.062 167.625 173.062C169.354 173.062 170.99 172.927 172.531 172.656C174.073 172.385 175.5 172.01 176.812 171.531C178.125 171.052 179.312 170.49 180.375 169.844C181.458 169.198 182.385 168.49 183.156 167.719C182.656 164.302 181.156 161.729 178.656 160C176.156 158.25 172.875 157.375 168.812 157.375C166.771 157.375 164.958 157.583 163.375 158C161.792 158.417 160.458 159 159.375 159.75C158.292 160.479 157.469 161.354 156.906 162.375C156.344 163.396 156.062 164.51 156.062 165.719ZM213.656 173.469C211.823 173.469 210.125 173.167 208.562 172.562C207.021 171.958 205.688 171.115 204.562 170.031C203.438 168.927 202.562 167.604 201.938 166.062C201.312 164.5 201 162.76 201 160.844C201 158.948 201.312 157.219 201.938 155.656C202.562 154.094 203.438 152.771 204.562 151.688C205.688 150.583 207.021 149.729 208.562 149.125C210.125 148.521 211.823 148.219 213.656 148.219C215.49 148.219 217.177 148.521 218.719 149.125C220.281 149.729 221.625 150.583 222.75 151.688C223.875 152.771 224.75 154.094 225.375 155.656C226 157.219 226.312 158.948 226.312 160.844C226.312 162.76 226 164.5 225.375 166.062C224.75 167.604 223.875 168.927 222.75 170.031C221.625 171.115 220.281 171.958 218.719 172.562C217.177 173.167 215.49 173.469 213.656 173.469ZM245.906 148.812H255.5L216.281 198H206.688L245.906 148.812ZM213.656 167.094C214.448 167.094 215.188 166.948 215.875 166.656C216.583 166.344 217.198 165.917 217.719 165.375C218.24 164.812 218.646 164.146 218.938 163.375C219.25 162.604 219.406 161.76 219.406 160.844C219.406 159.927 219.25 159.083 218.938 158.312C218.646 157.542 218.24 156.885 217.719 156.344C217.198 155.781 216.583 155.354 215.875 155.062C215.188 154.75 214.448 154.594 213.656 154.594C212.865 154.594 212.115 154.75 211.406 155.062C210.719 155.354 210.115 155.781 209.594 156.344C209.073 156.885 208.656 157.542 208.344 158.312C208.052 159.083 207.906 159.927 207.906 160.844C207.906 161.76 208.052 162.604 208.344 163.375C208.656 164.146 209.073 164.812 209.594 165.375C210.115 165.917 210.719 166.344 211.406 166.656C212.115 166.948 212.865 167.094 213.656 167.094ZM235.562 186.031C235.562 184.135 235.875 182.406 236.5 180.844C237.125 179.281 238 177.958 239.125 176.875C240.25 175.771 241.583 174.917 243.125 174.312C244.688 173.708 246.385 173.406 248.219 173.406C250.052 173.406 251.74 173.708 253.281 174.312C254.844 174.917 256.188 175.771 257.312 176.875C258.438 177.958 259.312 179.281 259.938 180.844C260.562 182.406 260.875 184.135 260.875 186.031C260.875 187.948 260.562 189.688 259.938 191.25C259.312 192.792 258.438 194.115 257.312 195.219C256.188 196.302 254.844 197.146 253.281 197.75C251.74 198.354 250.052 198.656 248.219 198.656C246.385 198.656 244.688 198.354 243.125 197.75C241.583 197.146 240.25 196.302 239.125 195.219C238 194.115 237.125 192.792 236.5 191.25C235.875 189.688 235.562 187.948 235.562 186.031ZM242.469 186.031C242.469 186.948 242.615 187.792 242.906 188.562C243.219 189.333 243.635 190 244.156 190.562C244.677 191.104 245.281 191.531 245.969 191.844C246.677 192.135 247.427 192.281 248.219 192.281C249.01 192.281 249.75 192.135 250.438 191.844C251.146 191.531 251.76 191.104 252.281 190.562C252.802 190 253.208 189.333 253.5 188.562C253.812 187.792 253.969 186.948 253.969 186.031C253.969 185.115 253.812 184.271 253.5 183.5C253.208 182.729 252.802 182.073 252.281 181.531C251.76 180.969 251.146 180.542 250.438 180.25C249.75 179.938 249.01 179.781 248.219 179.781C247.427 179.781 246.677 179.938 245.969 180.25C245.281 180.542 244.677 180.969 244.156 181.531C243.635 182.073 243.219 182.729 242.906 183.5C242.615 184.271 242.469 185.115 242.469 186.031Z" fill="black"/>
</svg>
